<?xml version="1.0" encoding="UTF-8"?>
<!-- Generator: Adobe Illustrator 23.0.3, SVG Export Plug-In . SVG Version: 6.00 Build 0) -->
<svg xmlns="http://www.w3.org/2000/svg" xmlns:xlink="http://www.w3.org/1999/xlink" id="Layer_1" x="0px" y="0px" viewBox="0 0 1131.58 231.52" style="enable-background:new 0 0 1131.58 231.52;" xml:space="preserve"> <style type="text/css"> .st0{fill:none;} .st1{fill:#51374C;} </style> <path class="st0" d="M183.65,173.36c7.81,2.16,14.84,5.46,22.01,5.83c21.36,1.11,35.95-10.05,45.32-28.38 c8.57-16.75,9.7-34.67,6.72-53.02c-1.81-11.13-5.12-21.67-11.91-30.86c-14.18-19.16-40.2-21.84-57.92-6c-1.12,1-2.34,1.88-4.17,3.33 c-0.23-2.59-0.59-4.08-0.45-5.52c0.46-4.61-1.45-6.01-6.03-5.85c-9.81,0.33-19.65,0.08-29.47,0.12c-2.26,0.01-4.51,0.23-6.68,0.35 c0,59.61,0,118.64,0,178.08c12.84,0,25.3-0.14,37.76,0.08c3.77,0.07,4.89-1.13,4.86-4.81c-0.15-15.49-0.05-30.97-0.04-46.46 C183.65,177.78,183.65,175.32,183.65,173.36z M521.55,176.5c13.81,0,26.63-0.05,39.45,0.03c3.66,0.02,3.33-2.4,3.33-4.75 c0-37.83-0.05-75.66,0.06-113.49c0.01-3.78-1.28-4.9-4.93-4.84c-10.66,0.18-21.34,0.26-31.99-0.03c-4.52-0.12-6.04,1.17-6,5.86 c0.22,23.66,0.07,47.33,0.15,70.99c0.02,6.67-2.81,11.98-7.59,16.17c-7.47,6.56-18.01,3.44-20.5-6.16 c-1.11-4.28-1.31-8.88-1.33-13.34c-0.13-22.66-0.19-45.33,0.05-67.99c0.05-4.58-1.47-5.58-5.69-5.51c-12.99,0.23-26,0.06-38.99,0.08 c-1.37,0-2.74,0.31-5,0.58c5.85,5.17,6.33,11.23,6.32,17.49c-0.03,20.33-0.06,40.66,0.03,60.99c0.02,5.49,0.24,11,0.78,16.46 c1.54,15.55,11.91,26.86,27.12,29.85c16.24,3.2,31.42-4.86,40.15-21.35c1.1-2.08,2.14-4.19,3.21-6.28c0.46,0.14,0.91,0.27,1.37,0.41 C521.55,159.73,521.55,167.77,521.55,176.5z M890.56,53.52c5.64,10.38,5.6,10.38,5.65,22.7c0.1,23.49-0.18,47,0.55,70.47 c0.39,12.66,6.06,23.25,17.95,29.15c17.7,8.77,37.24,2.19,47.99-15.83c1.74-2.92,3.29-5.97,4.92-8.96c0.34,0.07,0.69,0.14,1.03,0.22 c0,8.2,0,16.41,0,24.46c1.06,0.37,1.52,0.67,1.98,0.68c12.5,0.06,24.99,0.03,37.49,0.15c3.68,0.03,3.32-2.41,3.32-4.75 c0.01-37.83-0.03-75.66,0.08-113.49c0.01-3.76-1.28-4.91-4.93-4.85c-11,0.17-22,0.21-32.99-0.01c-4.01-0.08-5.05,1.31-5.03,5.19 c0.17,23.83,0.01,47.66,0.17,71.49c0.05,6.53-2.62,11.64-7.05,15.92c-7.13,6.88-17.77,4.24-20.67-5.21 c-1.15-3.75-1.71-7.83-1.74-11.76c-0.16-23.5-0.18-46.99,0-70.49c0.03-3.99-1.19-5.29-5.06-5.12c-5.49,0.23-11,0.05-16.5,0.05 C908.93,53.52,900.13,53.52,890.56,53.52z M758.31,114.86c0.15,33.53,18.29,57.53,48.83,63.03c25.04,4.51,47.19-1.34,62.92-22.73 c11.08-15.06,13.75-32.44,11.35-50.79c-6.21-47.29-50.12-62.42-85.55-49.24C771.67,64.13,758.19,86.61,758.31,114.86z M127.34,137.73c-0.42-0.46-0.84-0.93-1.26-1.39c-1.19,0.83-2.41,1.62-3.56,2.5c-4.48,3.42-8.59,7.51-13.47,10.2 c-19.52,10.72-39.13,3.8-46.79-15.95c-1.55-4-1.08-5.8,3.45-7.01c19.1-5.13,38.11-10.63,57.14-16.04c7.22-2.05,7.45-2.24,6.18-9.53 c-3.78-21.71-14.67-38.59-35.93-46.05C70.6,46.57,49.17,50.36,31.04,66.3c-15.53,13.66-20.7,31.69-20.44,52.09 c0.52,41.92,39.04,71.04,79.11,58.92C109.65,171.28,121.37,157.04,127.34,137.73z M1027.44,170.02c7.98,1.38,14.96,2.46,21.88,3.84 c3.74,0.75,7.35,2.1,11.05,3.02c20.09,4.97,39.05,2.73,56.12-9.56c20.41-14.69,19.6-48.99,0.71-62.11 c-6.61-4.59-14.08-8.17-21.55-11.24c-9.2-3.77-19-6.1-28.21-9.85c-7.56-3.07-9.76-8.23-8.23-15.61c1.31-6.32,7.09-10.67,14.22-11.11 c10.51-0.66,18.88,3.96,25.76,11.08c6.22,6.43,11.54,13.74,17.32,20.61c1.23,1.46,2.72,2.71,4.1,4.05c0.39-0.26,0.79-0.53,1.18-0.79 c0-10.36,0-20.71,0-30.48c-8.12-2.56-15.85-5.06-23.62-7.42c-14.32-4.34-28.77-5.55-43.13-0.43c-16.08,5.74-26.53,16.7-28.06,34.14 c-1.46,16.66,4.08,30.95,19.25,39.29c9.21,5.07,19.52,8.17,29.4,11.98c5.71,2.2,11.9,3.41,17.26,6.22 c7.11,3.73,8.65,13.43,3.14,19.29c-2.81,3-6.85,5.52-10.8,6.63c-8.95,2.52-18.22,1.67-26.03-3.33 c-7.06-4.51-13.31-10.39-19.48-16.13c-3.62-3.37-6.34-7.7-9.6-11.48c-0.64-0.74-1.94-1.16-2.95-1.21c-0.38-0.02-1.22,1.48-1.18,2.25 C1026.41,151.49,1026.96,161.27,1027.44,170.02z M437.26,137.58c-0.56-0.29-1.11-0.59-1.67-0.88c-1.02,1.33-1.86,2.89-3.11,3.96 c-4.49,3.86-8.6,8.68-13.8,11.09c-15.91,7.35-34.43-0.57-41.21-18.13c-7.99-20.69-6.48-41.55,3.23-61.42 c2.19-4.49,6.54-8.49,10.84-11.25c7.01-4.5,16.04-1.63,19.15,4.14c-3.39,3.75-7.56,6.7-9.37,10.71 c-3.81,8.43,1.45,18.13,10.17,20.63c9.17,2.63,18.93-3.03,20.71-12.18c1.69-8.65-1.51-15.75-7.68-21.59 c-7.16-6.77-15.98-10.14-25.6-11.24c-24.32-2.79-45.08,3.74-59.21,24.79c-13.17,19.6-13.79,41.29-7.8,63.32 c6.57,24.16,26.59,39.56,50.74,39.92c26.29,0.39,45.64-13.09,53.47-37.28C436.62,140.68,436.89,139.11,437.26,137.58z M626.46,72.46 c-0.43-0.04-0.86-0.07-1.29-0.11c0-4.59-0.27-9.21,0.08-13.77c0.32-4.14-1.42-5.09-5.17-5.03c-10.66,0.18-21.33,0.27-31.99-0.02 c-4.46-0.12-5.57,1.33-5.55,5.69c0.17,37.16,0.09,74.31,0.1,111.47c0,1.77,0.17,3.55,0.26,5.39c14.34,0,28.21,0,42.45,0 c0-2.48,0-4.46,0-6.45c0-24.66,0.03-49.32-0.02-73.98c-0.02-12.97,6.69-21.58,17.77-27.11c2.53-1.26,5.79-1.04,9.67-1.65 c-1.21,2.99-1.86,4.5-2.44,6.03c-3.69,9.78-0.83,19.84,6.88,24.26c8.59,4.92,21.08,3.02,27-4.09c8.01-9.62,8.65-31.62-9.04-39.42 c-13.5-5.95-29.51-2.93-39.97,8.02C632.02,65.03,629.36,68.86,626.46,72.46z M744.69,176.5c0.25-1.29,0.43-1.76,0.43-2.24 c0.02-38.97,0-77.94,0.11-116.91c0.01-3.33-1.54-3.85-4.26-3.84c-10.99,0.06-21.99,0.23-32.97-0.08c-4.81-0.14-6.24,1.38-6.21,6.21 c0.19,33.64,0.11,67.28,0.11,100.92c0,4.16-0.23,8.35,0.16,12.48c0.12,1.24,1.94,3.3,3.01,3.32 C718.18,176.58,731.3,176.5,744.69,176.5z M314.84,176.51c0.18-1.47,0.36-2.27,0.36-3.07c0.01-38.62-0.03-77.24,0.08-115.86 c0.01-3.56-1.62-4.11-4.55-4.09c-10.82,0.07-21.64,0.19-32.46-0.06c-4.5-0.11-6.02,1.25-5.98,5.92c0.18,20.97-0.01,41.95-0.06,62.92 c-0.04,16.48-0.07,32.96-0.07,49.44c0,2.28-0.43,4.85,3.27,4.83C288.4,176.47,301.37,176.51,314.84,176.51z M723.48,38.55 c12.03-0.04,20.87-8.32,20.77-19.47c-0.09-10.57-9.48-19.12-20.94-19.07c-11.44,0.05-20.7,8.64-20.75,19.24 C702.51,30.39,711.4,38.59,723.48,38.55z M293.76,38.59c11.63,0.07,20.58-8.11,20.77-18.99C314.7,8.82,305.27-0.02,293.61,0 c-11.3,0.01-20.71,8.66-20.92,19.22C272.47,29.97,281.77,38.51,293.76,38.59z"/> <path class="st1" d="M183.65,173.36c0,1.97,0,4.43,0,6.89c-0.01,15.49-0.11,30.97,0.04,46.46c0.03,3.68-1.09,4.88-4.86,4.81 c-12.46-0.22-24.92-0.08-37.76-0.08c0-59.44,0-118.47,0-178.08c2.16-0.12,4.42-0.34,6.68-0.35c9.82-0.04,19.66,0.21,29.47-0.12 c4.58-0.16,6.5,1.25,6.03,5.85c-0.14,1.44,0.22,2.93,0.45,5.52c1.83-1.45,3.05-2.33,4.17-3.33c17.72-15.83,43.74-13.16,57.92,6 c6.79,9.18,10.1,19.72,11.91,30.86c2.98,18.35,1.85,36.27-6.72,53.02c-9.37,18.33-23.97,29.49-45.32,28.38 C198.49,178.82,191.46,175.52,183.65,173.36z M183.64,114.71c0,12-0.02,24,0.01,36c0.02,8.57,5.75,12.74,14.21,10.55 c7.46-1.93,11.29-7.47,13.69-14.06c5.25-14.37,5.81-29.37,4.42-44.36c-0.7-7.53-2.17-15.18-4.62-22.32 c-3.37-9.82-12.44-13.72-21.66-10.61c-4.04,1.37-6.27,3.54-6.15,8.32C183.83,90.38,183.63,102.55,183.64,114.71z"/> <path class="st1" d="M521.55,176.5c0-8.72,0-16.77,0-24.81c-0.46-0.14-0.91-0.27-1.37-0.41c-1.07,2.09-2.11,4.2-3.21,6.28 c-8.73,16.48-23.91,24.55-40.15,21.35c-15.2-3-25.58-14.3-27.12-29.85c-0.54-5.46-0.76-10.97-0.78-16.46 c-0.09-20.33-0.05-40.66-0.03-60.99c0.01-6.26-0.48-12.33-6.32-17.49c2.26-0.27,3.63-0.58,5-0.58c13-0.03,26,0.14,38.99-0.08 c4.22-0.07,5.74,0.92,5.69,5.51c-0.25,22.66-0.18,45.33-0.05,67.99c0.02,4.46,0.22,9.06,1.33,13.34c2.49,9.6,13.02,12.72,20.5,6.16 c4.78-4.19,7.61-9.51,7.59-16.17c-0.08-23.66,0.08-47.33-0.15-70.99c-0.04-4.69,1.47-5.98,6-5.86c10.66,0.29,21.33,0.21,31.99,0.03 c3.64-0.06,4.94,1.06,4.93,4.84c-0.11,37.83-0.06,75.66-0.06,113.49c0,2.35,0.33,4.77-3.33,4.75 C548.18,176.45,535.36,176.5,521.55,176.5z"/> <path class="st1" d="M890.56,53.52c9.57,0,18.37,0,27.17,0c5.5,0,11.01,0.18,16.5-0.05c3.87-0.16,5.09,1.14,5.06,5.12 c-0.18,23.5-0.16,46.99,0,70.49c0.03,3.93,0.59,8.01,1.74,11.76c2.9,9.45,13.54,12.1,20.67,5.21c4.43-4.28,7.09-9.39,7.05-15.92 c-0.17-23.83,0-47.66-0.17-71.49c-0.03-3.88,1.02-5.28,5.03-5.19c10.99,0.23,22,0.19,32.99,0.01c3.65-0.06,4.94,1.1,4.93,4.85 c-0.11,37.83-0.07,75.66-0.08,113.49c0,2.34,0.36,4.78-3.32,4.75c-12.5-0.12-24.99-0.09-37.49-0.15c-0.46,0-0.92-0.3-1.98-0.68 c0-8.05,0-16.26,0-24.46c-0.34-0.07-0.69-0.14-1.03-0.22c-1.64,2.99-3.18,6.03-4.92,8.96c-10.75,18.02-30.29,24.61-47.99,15.83 c-11.89-5.89-17.56-16.49-17.95-29.15c-0.73-23.47-0.45-46.98-0.55-70.47C896.16,63.9,896.2,63.9,890.56,53.52z"/> <path class="st1" d="M758.31,114.86c-0.13-28.24,13.36-50.72,37.55-59.73c35.43-13.18,79.34,1.95,85.55,49.24 c2.41,18.35-0.27,35.73-11.35,50.79c-15.74,21.39-37.88,27.24-62.92,22.73C776.6,172.38,758.46,148.39,758.31,114.86z M839.1,114.91 c-0.32-0.06-0.65-0.13-0.97-0.19c-0.5-9.46-0.53-18.97-1.66-28.36c-0.85-7.01-2.66-14.01-4.92-20.71 c-1.67-4.95-5.64-8.18-11.38-8.15c-5.5,0.03-9.07,3.1-11.09,7.83c-1.62,3.79-3.08,7.76-3.79,11.79c-3.73,21.45-3.21,43.1-1.56,64.66 c0.61,7.95,2.68,16.15,5.86,23.46c4.26,9.79,15.87,9.67,21.3,0.4c1.32-2.26,2.55-4.81,2.89-7.36 C835.7,143.85,837.35,129.37,839.1,114.91z"/> <path class="st1" d="M127.34,137.73c-5.97,19.31-17.7,33.55-37.63,39.58c-40.08,12.12-78.6-17-79.11-58.92 c-0.25-20.4,4.91-38.43,20.44-52.09C49.17,50.36,70.6,46.57,93.09,54.46c21.26,7.46,32.15,24.34,35.93,46.05 c1.27,7.29,1.04,7.48-6.18,9.53c-19.03,5.4-38.03,10.9-57.14,16.04c-4.53,1.22-5,3.02-3.45,7.01c7.66,19.75,27.27,26.67,46.79,15.95 c4.88-2.68,8.99-6.78,13.47-10.2c1.15-0.88,2.37-1.67,3.56-2.5C126.5,136.8,126.92,137.27,127.34,137.73z M58.55,116.44 c0.83,0.35,1.17,0.64,1.42,0.58c9.32-2.37,18.65-4.71,27.92-7.28c0.87-0.24,1.89-1.94,1.89-2.96c0.09-12.68-0.57-25.31-5.58-37.2 c-1.92-4.55-4.64-8.93-10.31-8.85c-5.41,0.08-8.25,4.34-9.86,8.73c-2.27,6.2-4.64,12.61-5.26,19.1 C57.89,97.84,58.55,107.28,58.55,116.44z"/> <path class="st1" d="M1027.44,170.02c-0.47-8.75-1.03-18.53-1.47-28.32c-0.03-0.78,0.81-2.27,1.18-2.25 c1.02,0.05,2.31,0.47,2.95,1.21c3.27,3.77,5.98,8.11,9.6,11.48c6.17,5.74,12.42,11.62,19.48,16.13c7.82,5,17.08,5.85,26.03,3.33 c3.94-1.11,7.98-3.64,10.8-6.63c5.5-5.86,3.96-15.56-3.14-19.29c-5.36-2.81-11.55-4.02-17.26-6.22c-9.88-3.81-20.19-6.92-29.4-11.98 c-15.17-8.34-20.71-22.63-19.25-39.29c1.53-17.44,11.97-28.4,28.06-34.14c14.36-5.12,28.8-3.91,43.13,0.43 c7.77,2.35,15.5,4.86,23.62,7.42c0,9.76,0,20.12,0,30.48c-0.39,0.26-0.79,0.53-1.18,0.79c-1.37-1.34-2.87-2.59-4.1-4.05 c-5.78-6.87-11.09-14.18-17.32-20.61c-6.88-7.12-15.25-11.73-25.76-11.08c-7.13,0.45-12.91,4.79-14.22,11.11 c-1.53,7.39,0.68,12.55,8.23,15.61c9.22,3.74,19.01,6.08,28.21,9.85c7.48,3.06,14.94,6.65,21.55,11.24 c18.89,13.12,19.7,47.43-0.71,62.11c-17.07,12.29-36.03,14.53-56.12,9.56c-3.71-0.92-7.32-2.28-11.05-3.02 C1042.4,172.48,1035.42,171.4,1027.44,170.02z"/> <path class="st1" d="M437.26,137.58c-0.37,1.53-0.65,3.09-1.13,4.59c-7.83,24.19-27.18,37.68-53.47,37.28 c-24.15-0.36-44.17-15.76-50.74-39.92c-5.99-22.03-5.37-43.72,7.8-63.32c14.14-21.05,34.9-27.58,59.21-24.79 c9.62,1.1,18.44,4.47,25.6,11.24c6.17,5.84,9.37,12.94,7.68,21.59c-1.79,9.15-11.54,14.81-20.71,12.18 c-8.72-2.5-13.98-12.2-10.17-20.63c1.81-4.01,5.98-6.96,9.37-10.71c-3.12-5.77-12.14-8.63-19.15-4.14 c-4.3,2.76-8.65,6.76-10.84,11.25c-9.71,19.87-11.22,40.73-3.23,61.42c6.78,17.56,25.29,25.49,41.21,18.13 c5.2-2.4,9.31-7.23,13.8-11.09c1.25-1.07,2.08-2.63,3.11-3.96C436.15,136.99,436.71,137.29,437.26,137.58z"/> <path class="st1" d="M626.46,72.46c2.9-3.6,5.56-7.43,8.74-10.76c10.46-10.95,26.47-13.97,39.97-8.02 c17.68,7.79,17.05,29.8,9.04,39.42c-5.92,7.11-18.41,9.01-27,4.09c-7.71-4.42-10.57-14.48-6.88-24.26c0.58-1.54,1.23-3.05,2.44-6.03 c-3.88,0.61-7.14,0.39-9.67,1.65c-11.08,5.53-17.79,14.14-17.77,27.11c0.04,24.66,0.02,49.32,0.02,73.98c0,1.98,0,3.97,0,6.45 c-14.24,0-28.11,0-42.45,0c-0.09-1.84-0.26-3.62-0.26-5.39c-0.01-37.16,0.06-74.31-0.1-111.47c-0.02-4.35,1.09-5.81,5.55-5.69 c10.66,0.29,21.33,0.2,31.99,0.02c3.75-0.06,5.49,0.88,5.17,5.03c-0.35,4.56-0.08,9.18-0.08,13.77 C625.6,72.39,626.03,72.42,626.46,72.46z"/> <path class="st1" d="M744.69,176.5c-13.38,0-26.51,0.08-39.63-0.15c-1.07-0.02-2.89-2.08-3.01-3.32c-0.39-4.13-0.16-8.31-0.16-12.48 c0-33.64,0.08-67.28-0.11-100.92c-0.03-4.83,1.4-6.34,6.21-6.21c10.98,0.31,21.98,0.14,32.97,0.08c2.72-0.01,4.27,0.51,4.26,3.84 c-0.11,38.97-0.08,77.94-0.11,116.91C745.11,174.74,744.94,175.21,744.69,176.5z"/> <path class="st1" d="M314.84,176.51c-13.47,0-26.44-0.04-39.41,0.02c-3.7,0.02-3.27-2.55-3.27-4.83c0-16.48,0.04-32.96,0.07-49.44 c0.05-20.97,0.24-41.95,0.06-62.92c-0.04-4.67,1.48-6.02,5.98-5.92c10.81,0.26,21.64,0.14,32.46,0.06c2.93-0.02,4.56,0.53,4.55,4.09 c-0.11,38.62-0.07,77.24-0.08,115.86C315.2,174.24,315.02,175.04,314.84,176.51z"/> <path class="st1" d="M723.48,38.55c-12.07,0.04-20.96-8.16-20.91-19.3c0.05-10.6,9.31-19.19,20.75-19.24 c11.46-0.05,20.85,8.5,20.94,19.07C744.34,30.23,735.51,38.51,723.48,38.55z"/> <path class="st1" d="M293.76,38.59c-11.99-0.07-21.29-8.62-21.07-19.36C272.91,8.66,282.31,0.01,293.61,0 c11.66-0.02,21.09,8.82,20.91,19.6C314.34,30.48,305.39,38.66,293.76,38.59z"/> <path class="st0" d="M183.64,114.71c0-12.17,0.19-24.33-0.1-36.49c-0.11-4.77,2.11-6.95,6.15-8.32c9.22-3.11,18.29,0.78,21.66,10.61 c2.45,7.14,3.92,14.79,4.62,22.32c1.39,15,0.84,30-4.42,44.36c-2.41,6.59-6.24,12.13-13.69,14.06c-8.47,2.19-14.19-1.98-14.21-10.55 C183.62,138.71,183.64,126.71,183.64,114.71z"/> <path class="st0" d="M839.1,114.91c-1.74,14.46-3.39,28.93-5.32,43.37c-0.34,2.54-1.57,5.1-2.89,7.36 c-5.44,9.27-17.04,9.39-21.3-0.4c-3.18-7.31-5.25-15.51-5.86-23.46c-1.65-21.56-2.17-43.2,1.56-64.66c0.7-4.03,2.17-8,3.79-11.79 c2.02-4.74,5.59-7.8,11.09-7.83c5.75-0.03,9.72,3.2,11.38,8.15c2.26,6.71,4.07,13.7,4.92,20.71c1.13,9.38,1.16,18.9,1.66,28.36 C838.45,114.79,838.77,114.85,839.1,114.91z"/> <path class="st0" d="M58.55,116.44c0-9.16-0.66-18.6,0.23-27.89c0.62-6.48,2.99-12.9,5.26-19.1c1.61-4.4,4.45-8.66,9.86-8.73 c5.67-0.08,8.4,4.3,10.31,8.85c5.01,11.9,5.67,24.52,5.58,37.2c-0.01,1.03-1.03,2.72-1.89,2.96c-9.27,2.57-18.6,4.91-27.92,7.28 C59.72,117.08,59.38,116.79,58.55,116.44z"/> </svg>