<?xml version="1.0" encoding="utf-8"?>
<!-- Generator: Adobe Illustrator 17.0.0, SVG Export Plug-In . SVG Version: 6.00 Build 0)  -->
<!DOCTYPE svg PUBLIC "-//W3C//DTD SVG 1.1//EN" "http://www.w3.org/Graphics/SVG/1.1/DTD/svg11.dtd">
<svg version="1.1" id="Layer_1" xmlns="http://www.w3.org/2000/svg" xmlns:xlink="http://www.w3.org/1999/xlink" x="0px" y="0px"
	 width="780.25px" height="161.156px" viewBox="0 0 780.25 161.156" enable-background="new 0 0 780.25 161.156"
	 xml:space="preserve">
<g>
	<path fill="#FAAC18" d="M166.25,77.694c0,7.803-6.255,14.148-14,14.148c-7.744,0-14-6.346-14-14.148V12.329h-14v65.365
		c0,15.547,12.51,28.195,28,28.195c15.49,0,28-12.648,28-28.195V12.329h-14V77.694z"/>
	<path fill="#FAAC18" d="M463.25,11.423c-15.49,0-28,12.646-28,28.193v10.713h-13v14h13v39h14v-39h28v39h14V39.616
		C491.25,24.069,478.738,11.423,463.25,11.423z M477.25,50.329h-28V39.616c0-7.803,6.254-14.148,14-14.148
		c7.746,0,14,6.346,14,14.148V50.329z"/>
	<path fill="#FAAC18" d="M263.605,0c-10.649,0-20.355,8.649-20.355,19.298v6.17v23.408v21.898l-26.723-58.445H201.25v91h14V47.208
		l30.143,56.121h11.857V48.876V25.468v-6.17c0-2.904,3.428-5.253,6.332-5.253c2.905,0,6.333,2.284,6.333,5.284h14.046
		C283.961,9.329,274.254,0,263.605,0z"/>
	<path fill="#FAAC18" d="M386.219,55.437c4.017-4.572,6.465-10.729,6.465-17.327c0-14.143-11.41-25.78-25.437-25.78H334.25v91h15
		v-77h17.997c6.283,0,11.392,5.5,11.392,11.898c0,6.398-5.217,12.102-11.392,12.102H356.25v14h10.997
		c2.317,0,4.629,0.312,6.794,1.136c0.524,0.201,1.041,0.36,1.561,0.571c15.967,6.443,26.283,21.723,26.283,38.943
		c0,23.154-18.837,42.147-41.99,42.147c-23.154,0-41.99-18.798-41.99-41.798h-14.046c0,30,25.138,55.827,56.036,55.827
		c30.899,0,56.036-25.239,56.036-56.138C415.931,84.032,404.442,65.101,386.219,55.437z"/>
	<polygon fill="#FAAC18" points="758.658,12.329 744.613,12.329 719.25,12.329 719.25,25.329 742.25,25.329 742.25,103.329 
		756.25,103.329 756.25,25.329 780.25,25.329 780.25,12.329 	"/>
	<polygon fill="#FAAC18" points="654.25,103.329 703.25,103.329 703.25,90.329 668.25,90.329 668.25,63.329 693.25,63.329 
		693.25,50.329 668.25,50.329 668.25,25.329 703.25,25.329 703.25,12.329 654.25,12.329 	"/>
	<path fill="#FAAC18" d="M99.603,70.954c-3.771-4.414-8.29-7.953-13.098-11.098c-3.339-2.183-6.82-4.176-10.286-6.137
		c-6.747-3.82-17.929-9.498-16.472-19.021c0.984-6.43,8.031-10.918,14.085-10.248c7.122,0.789,13.757,7.512,16.043,14.148
		l13.28-4.576c-4.239-12.301-16.106-22.225-28.219-23.6c-13.444-1.527-27.033,8.826-29.072,22.152
		c-3.984,26.037,28.224,31.537,42.115,46.435c6.191,6.641,9.701,11.881,10.596,20.93c1.115,11.279-2.227,22.316-9.413,31.08
		c-7.187,8.764-17.354,14.205-28.633,15.32c-11.251,1.109-22.316-2.227-31.08-9.412c-8.763-7.186-14.181-16.946-15.297-28.224
		c0,0-0.326-1.376-0.421-3.376H0.197c0,0-0.41,1.581-0.046,4.485c1.485,15.012,8.727,28.478,20.392,38.042
		c11.453,9.391,25.821,13.82,40.547,12.57c0.272-0.021,0.548-0.064,0.821-0.09c15.012-1.484,28.546-8.737,38.112-20.403
		c9.564-11.664,14.014-26.36,12.529-41.372C111.415,87.081,107.091,79.718,99.603,70.954z"/>
	<polygon fill="#FAAC18" points="606.742,53.14 638.063,13.21 620.951,13.21 597.168,43.489 597.168,13.21 583.168,13.21 
		583.168,104.21 597.168,104.21 597.168,64.874 597.465,64.8 623.506,104.138 640.225,104.138 	"/>
	<path fill="#FAAC18" d="M546.547,55.554c-2.913-1.842-5.799-3.73-8.735-5.537c-4.338-2.67-9.528-5.203-11.671-10.195
		c-1.937-4.512,0.947-10.363,4.969-12.416c8.438-4.305,16.252,4.66,19.418,11.588l0.061,0.137l12.356-6.006l-0.06-0.131
		c-4.726-10.455-14.913-21.004-27.009-21.004c-0.523,0-1.053,0.019-1.575,0.059c-12.212,0.894-21.194,10.033-22.351,22.74
		c-0.857,9.396,3.438,17.729,11.784,22.859c14.152,8.994,15.576,9.896,15.748,10.006c4.107,2.568,8.814,6.049,9.903,11.109
		c1.095,5.092-3.342,10.57-8.109,12.045c-5.059,1.564-10.303-0.533-14.021-4.057c-2.148-2.037-4.294-4.664-5.718-7.277l-0.072-0.131
		l-11.928,6.871l0.066,0.125c6.408,11.955,16.93,19.092,28.145,19.092c2.726,0,5.338-0.428,7.769-1.27
		c8.468-2.936,17.337-11.68,17.903-22.709C564.183,66.587,550.909,58.282,546.547,55.554z"/>
</g>
</svg>
