<?xml version="1.0" encoding="UTF-8"?>
<!-- Generator: Adobe Illustrator 22.0.1, SVG Export Plug-In . SVG Version: 6.00 Build 0) -->
<svg xmlns="http://www.w3.org/2000/svg" xmlns:xlink="http://www.w3.org/1999/xlink" id="Layer_1" x="0px" y="0px" viewBox="0 0 508.4 175.6" style="enable-background:new 0 0 508.4 175.6;" xml:space="preserve"> <g> <path d="M126.3,171.8c31.5,0,62.4,0,93.5,0c0-12.4,0-24.6,0-37.3c-6,0-11.8,0-17.8,0c0-10.8,0-21,0-31.3c0-16.4,11.7-26.8,28-25 c9.7,1.1,15.4,7.2,15.5,16.9c0.1,12,0,24,0.1,36c0,2.6-0.7,3.5-3.4,3.4c-4.6-0.2-9.2-0.1-13.9-0.1c0,12.7,0,24.9,0,37.3 c30.5,0,60.8,0,91.5,0c0-11.7,0-23.2,0-34.9c0.6,0.2,0.7,0.2,0.8,0.3c0.3,0.4,0.6,0.8,0.8,1.2c5.8,10.8,14.2,19.1,25,24.7 c28.9,14.9,59,16.3,89.4,5.7c17.8-6.2,28.4-19.7,32.9-38c0.5-2.2,0.7-4.6,1.1-7c-17.1,0-33.6,0-49,0c-2.3,4.9-3.5,9.8-6.3,13.2 c-6.2,7.4-14.9,8-23.8,6.1c-8.4-1.8-12.8-7.8-14.6-15.8c-2.4-10.6-2.1-21.4-1-32.1c0.3-3.2,1.1-6.4,2.2-9.5 c3.4-9.3,10.9-13.7,21.6-13.2c9.2,0.4,15.2,5.2,17.7,14.9c1.1,4.4,1.6,9,2.4,13.9c16.7-1.8,33.3-3.7,50.1-5.5 c-0.1-1.5-0.1-2.4-0.2-3.2c-3.5-22.8-16-38.6-37.8-46.1c-26-9-52.1-7.3-77.3,3.2C317.5,64.9,309.4,98,317,127.2 c0.6,2.2,1.4,4.4,2.2,6.8c-5,0-9.6,0-14.6,0c0-1.7,0-3.1,0-4.4c0-15.5,0.1-31,0-46.5c-0.1-19.3-10.4-33.3-29-38.5 c-7-1.9-14.5-2.8-21.8-3.1c-20.5-0.8-38.1,5.7-51.4,22c-0.5,0.6-1.2,1-2.5,2.1c0-9,0-17.2,0-25.4c-24.9,0-49.2,0-73.7,0 c0,12.5,0,24.8,0,37.4c5.6,0,10.9,0,16.4,0c0,19,0,37.7,0,56.8c-5.7,0-11.1,0-16.5,0C126.3,147.2,126.3,159.4,126.3,171.8z M119.5,134.3c-7.5,0-14.7,0-22,0c0-31.6,0-62.8,0-94.3c7.5,0,14.7,0,21.9,0c0-13.6,0-26.7,0-39.9C79.4,0,39.8,0,0,0 c0,13.4,0,26.6,0,40.2c7.5,0,14.7,0,22.1,0c0.1,1.5,0.2,2.6,0.2,3.7c0,29,0,58,0.1,87c0,3-0.9,3.9-3.8,3.8 c-6.2-0.2-12.4-0.1-18.6-0.1c0,12.8,0,25,0,37.3c39.9,0,79.6,0,119.5,0C119.5,159.4,119.5,147.2,119.5,134.3z M508.4,151.3 c0-12-9.4-21.4-21.3-21.4c-11.9,0-21.3,9.5-21.3,21.5c0,11.7,9.4,21.1,21.2,21.2C498.9,172.6,508.5,163.2,508.4,151.3z"/> <path d="M126.3,171.8c0-12.3,0-24.5,0-37.2c5.4,0,10.8,0,16.5,0c0-19.1,0-37.8,0-56.8c-5.5,0-10.8,0-16.4,0c0-12.7,0-24.9,0-37.4 c24.5,0,48.8,0,73.7,0c0,8.2,0,16.4,0,25.4c1.3-1.1,2-1.5,2.5-2.1c13.3-16.3,30.9-22.8,51.4-22c7.3,0.3,14.8,1.1,21.8,3.1 c18.6,5.1,28.9,19.1,29,38.5c0.1,15.5,0,31,0,46.5c0,1.4,0,2.7,0,4.4c4.9,0,9.6,0,14.6,0c-0.8-2.4-1.6-4.6-2.2-6.8 c-7.7-29.2,0.5-62.3,36.8-77.6c25.2-10.6,51.2-12.3,77.3-3.2c21.8,7.5,34.3,23.3,37.8,46.1c0.1,0.9,0.1,1.7,0.2,3.2 c-16.8,1.8-33.4,3.7-50.1,5.5c-0.8-4.9-1.3-9.5-2.4-13.9c-2.5-9.7-8.4-14.6-17.7-14.9c-10.7-0.5-18.2,4-21.6,13.2 c-1.1,3-1.9,6.3-2.2,9.5c-1,10.7-1.4,21.5,1,32.1c1.8,8,6.2,14,14.6,15.8c8.9,1.9,17.5,1.3,23.8-6.1c2.9-3.4,4.1-8.3,6.3-13.2 c15.4,0,32,0,49,0c-0.4,2.4-0.5,4.8-1.1,7c-4.5,18.3-15.1,31.8-32.9,38c-30.4,10.6-60.5,9.2-89.4-5.7c-10.8-5.5-19.2-13.9-25-24.7 c-0.2-0.4-0.5-0.8-0.8-1.2c-0.1-0.1-0.2-0.1-0.8-0.3c0,11.7,0,23.2,0,34.9c-30.7,0-61,0-91.5,0c0-12.4,0-24.6,0-37.3 c4.7,0,9.3-0.1,13.9,0.1c2.7,0.1,3.4-0.8,3.4-3.4c-0.1-12,0.1-24-0.1-36c-0.1-9.8-5.8-15.9-15.5-16.9c-16.3-1.8-28,8.6-28,25 c0,10.2,0,20.5,0,31.3c6,0,11.8,0,17.8,0c0,12.7,0,24.9,0,37.3C188.7,171.8,157.7,171.8,126.3,171.8z"/> <path d="M119.5,134.3c0,12.9,0,25.1,0,37.5c-39.9,0-79.6,0-119.5,0c0-12.3,0-24.5,0-37.3c6.2,0,12.4-0.1,18.6,0.1 c2.9,0.1,3.8-0.7,3.8-3.8c-0.1-29-0.1-58-0.1-87c0-1.1-0.1-2.2-0.2-3.7c-7.4,0-14.6,0-22.1,0C0,26.6,0,13.4,0,0 c39.7,0,79.4,0,119.4,0c0,13.2,0,26.4,0,39.9c-7.2,0-14.4,0-21.9,0c0,31.6,0,62.7,0,94.3C104.8,134.3,112,134.3,119.5,134.3z"/> <path d="M508.4,151.3c0,11.9-9.5,21.3-21.5,21.2c-11.7-0.1-21.1-9.5-21.2-21.2c0-11.9,9.4-21.5,21.3-21.5 C499.1,129.9,508.4,139.3,508.4,151.3z"/> </g> </svg>