<?xml version="1.0" encoding="UTF-8"?>
<!-- Generator: Adobe Illustrator 22.0.1, SVG Export Plug-In . SVG Version: 6.00 Build 0) -->
<svg xmlns="http://www.w3.org/2000/svg" xmlns:xlink="http://www.w3.org/1999/xlink" id="Layer_1" x="0px" y="0px" viewBox="0 0 240 33.8" style="enable-background:new 0 0 240 33.8;" xml:space="preserve"> <style type="text/css"> .st0{fill:#4B3C30;} </style> <g> <title>Layer 1</title> <g id="svg_1"> <g id="svg_2"> <path id="svg_3" class="st0" d="M90.2,13.2v14.9h-5.5V13.2h-5.5V8.4h16.5v4.8H90.2z"/> <path id="svg_4" class="st0" d="M108.6,22.3h-8.7c0.1,1.7,1.1,2.4,2.5,2.4c1.3,0,2.4-0.3,3.8-1l2,3.2c-1.8,1.1-3.7,1.7-6.1,1.7 c-4.5,0-6.9-3.1-6.9-7.8c0-5.1,2.8-7.8,6.8-7.8c4.1,0,6.6,2.7,6.6,8.2C108.6,21.7,108.6,22,108.6,22.3z M101.8,16.8 c-1.1,0-1.8,0.8-2,2.3h4.2C103.8,17.6,103.4,16.8,101.8,16.8z"/> <path id="svg_5" class="st0" d="M118,28.5c-4.4,0-6.9-2.8-6.9-7.8c0-4.5,2.3-7.6,7.1-7.6c2.8,0,4.4,1.3,5.6,3.4l-3.5,2.7 c-0.7-1.3-1.1-2-2.3-2c-1.3,0-2,1.3-2,3.7s0.7,3.5,2.1,3.5c1,0,1.7-0.6,2.5-2l3.2,2.5C122.3,27.5,120.6,28.5,118,28.5z"/> <path id="svg_6" class="st0" d="M135.2,28.2v-8.5c0-2-0.7-2.4-1.7-2.4c-1.1,0-1.7,0.6-1.7,2.4v8.5h-5.1V9.7l5.1-2v6.8 c1-0.7,2-1.3,3.7-1.3c3.2,0,4.8,2.1,4.8,6.1v8.9C140.3,28.2,135.2,28.2,135.2,28.2z"/> <path id="svg_7" class="st0" d="M152.6,28.5c-5.9,0-9-4.4-9-10.2c0-6.3,3.7-10.2,9-10.2c4.8,0,6.8,2.1,8.2,5.8l-4.9,2 c-0.7-1.8-1.4-3-3.2-3c-2.3,0-3.2,2.3-3.2,5.4c0,3,1,5.4,3.4,5.4c1.7,0,2.4-1,3.5-2.8l4.7,2.4C159.5,25.9,157.2,28.5,152.6,28.5z "/> <path id="svg_8" class="st0" d="M173.3,19c-0.7-0.7-1.4-1.3-2.4-1.3c-1.3,0-2,0.6-2,2.4v8h-5.1V13.4h5.1v1.1 c0.8-0.8,1.8-1.4,3.1-1.4c1.1,0,1.8,0.3,2.4,0.6L173.3,19z"/> <path id="svg_9" class="st0" d="M185.3,28.2v-1c-0.8,0.7-2,1.3-3.7,1.3c-3.2,0-4.8-2.1-4.8-6.1v-9h5.1v8.5c0,2,0.7,2.4,1.7,2.4 s1.7-0.6,1.7-2.4v-8.5h5.1v14.8H185.3z"/> <path id="svg_10" class="st0" d="M202.6,28.2v-8.5c0-2-0.7-2.4-1.7-2.4c-1.1,0-1.7,0.6-1.7,2.4v8.5h-5.1V13.4h5.1v1 c1-0.7,2-1.3,3.7-1.3c3.2,0,4.8,2.1,4.8,6.1v9C207.7,28.2,202.6,28.2,202.6,28.2z"/> <path id="svg_11" class="st0" d="M217.6,28.5c-4.4,0-6.9-2.8-6.9-7.8c0-4.5,2.3-7.6,7.1-7.6c2.8,0,4.4,1.3,5.6,3.4l-3.5,2.7 c-0.7-1.3-1.1-2-2.3-2c-1.3,0-2,1.3-2,3.7s0.7,3.5,2.1,3.5c1,0,1.7-0.6,2.5-2l3.2,2.5C221.8,27.5,220.3,28.5,217.6,28.5z"/> <path id="svg_12" class="st0" d="M234.9,28.2v-8.5c0-2-0.7-2.4-1.7-2.4c-1.1,0-1.7,0.6-1.7,2.4v8.5h-5.1V9.7l5.1-2v6.8 c1-0.7,2-1.3,3.7-1.3c3.2,0,4.8,2.1,4.8,6.1v8.9C240,28.2,234.9,28.2,234.9,28.2z"/> </g> <g id="svg_13"> <polygon id="svg_14" class="st0" points="0,0 0,11.3 11.3,11.3 11.3,33.8 22.6,33.8 22.6,11.3 33.8,11.3 33.8,0 "/> <polygon id="svg_15" class="st0" points="45.1,22.5 45.1,11.3 33.8,11.3 33.8,33.8 67.7,33.8 67.7,22.5 "/> <rect id="svg_16" x="45.1" class="st0" width="22.6" height="11.3"/> </g> </g> </g> </svg>